<svg width="20" height="14" viewBox="0 0 20 14" fill="none" xmlns="http://www.w3.org/2000/svg">
<g id="button-arrow.svg" clip-path="url(#clip0_472_469)">
<path id="Icon ionic-ios-arrow-round-forward" d="M12.7506 0.259915C12.5814 0.431979 12.4866 0.663617 12.4866 0.904915C12.4866 1.14621 12.5814 1.37785 12.7506 1.54991L17.0006 5.82992H0.900552C0.772357 5.81649 0.642772 5.83016 0.520197 5.87003C0.397623 5.9099 0.284794 5.97508 0.189024 6.06135C0.0932533 6.14762 0.0166793 6.25305 -0.035735 6.3708C-0.0881494 6.48856 -0.115234 6.61602 -0.115234 6.74492C-0.115234 6.87381 -0.0881494 7.00127 -0.035735 7.11903C0.0166793 7.23678 0.0932533 7.34221 0.189024 7.42848C0.284794 7.51475 0.397623 7.57993 0.520197 7.6198C0.642772 7.65967 0.772357 7.67334 0.900552 7.65991H17.0006L12.7406 11.9999C12.5737 12.1732 12.4805 12.4044 12.4805 12.6449C12.4805 12.8855 12.5737 13.1166 12.7406 13.2899C12.8232 13.3728 12.9214 13.4385 13.0295 13.4833C13.1376 13.5282 13.2535 13.5513 13.3706 13.5513C13.4876 13.5513 13.6035 13.5282 13.7116 13.4833C13.8197 13.4385 13.9179 13.3728 14.0006 13.2899L19.7406 7.39992C19.8186 7.3137 19.8827 7.21586 19.9306 7.10992C19.9787 6.99961 20.0026 6.88025 20.0006 6.75992C20.0015 6.64137 19.979 6.52381 19.9344 6.41398C19.8898 6.30415 19.8239 6.20421 19.7406 6.11992L14.0006 0.279915C13.8419 0.117589 13.6273 0.0220043 13.4005 0.0127101C13.1737 0.00341586 12.9519 0.0811148 12.7806 0.229915L12.7506 0.259915Z" fill="white"/>
</g>
<defs>
<clipPath id="clip0_472_469">
<rect width="20" height="13.5" fill="white"/>
</clipPath>
</defs>
</svg>
