<svg width="20" height="14" viewBox="0 0 20 14" fill="none" xmlns="http://www.w3.org/2000/svg">
<g id="button-arrow.svg" clip-path="url(#clip0_472_463)">
<path id="Icon ionic-ios-arrow-round-forward" d="M12.7506 0.509915C12.5814 0.681979 12.4866 0.913617 12.4866 1.15492C12.4866 1.39621 12.5814 1.62785 12.7506 1.79991L17.0006 6.07992H0.900552C0.772357 6.06649 0.642772 6.08016 0.520197 6.12003C0.397623 6.1599 0.284794 6.22508 0.189024 6.31135C0.0932533 6.39762 0.0166793 6.50305 -0.035735 6.6208C-0.0881494 6.73856 -0.115234 6.86602 -0.115234 6.99492C-0.115234 7.12381 -0.0881494 7.25127 -0.035735 7.36903C0.0166793 7.48678 0.0932533 7.59221 0.189024 7.67848C0.284794 7.76475 0.397623 7.82993 0.520197 7.8698C0.642772 7.90967 0.772357 7.92334 0.900552 7.90991H17.0006L12.7406 12.2499C12.5737 12.4232 12.4805 12.6544 12.4805 12.8949C12.4805 13.1355 12.5737 13.3666 12.7406 13.5399C12.8232 13.6228 12.9214 13.6885 13.0295 13.7333C13.1376 13.7782 13.2535 13.8013 13.3706 13.8013C13.4876 13.8013 13.6035 13.7782 13.7116 13.7333C13.8197 13.6885 13.9179 13.6228 14.0006 13.5399L19.7406 7.64992C19.8186 7.5637 19.8827 7.46586 19.9306 7.35992C19.9787 7.24961 20.0026 7.13025 20.0006 7.00992C20.0015 6.89137 19.979 6.77381 19.9344 6.66398C19.8898 6.55415 19.8239 6.45421 19.7406 6.36992L14.0006 0.529915C13.8419 0.367589 13.6273 0.272004 13.4005 0.26271C13.1737 0.253416 12.9519 0.331115 12.7806 0.479915L12.7506 0.509915Z" fill="black"/>
</g>
<defs>
<clipPath id="clip0_472_463">
<rect width="20" height="13.5" fill="white" transform="translate(0 0.25)"/>
</clipPath>
</defs>
</svg>
