<?xml version="1.0" encoding="UTF-8"?>
<svg version="1.1" xmlns="http://www.w3.org/2000/svg" width="48" height="48">
<path d="M0 0 C0.66 0 1.32 0 2 0 C2.44085937 1.26457031 2.44085937 1.26457031 2.890625 2.5546875 C4.32927363 6.06862812 5.7003837 8.9690719 8 12 C12.00114321 13.60983496 15.72723872 13.81450587 20 14 C20.66 14.33 21.32 14.66 22 15 C20.6223562 18.32172998 19.36507252 19.51067727 16.3125 21.3125 C14.29917715 22.74167452 14.29917715 22.74167452 13 25 C12.67784312 30.11692513 13.23437571 34.94301941 14 40 C10.74217729 38.96835614 7.96347263 37.97869237 5 36.25 C2.05883296 34.69308807 2.05883296 34.69308807 -1 35.625 C-3.10076163 36.58784908 -5.18306453 37.59153227 -7.25 38.625 C-10 40 -10 40 -12 40 C-11.835 38.99839844 -11.67 37.99679688 -11.5 36.96484375 C-10.25309013 29.43955382 -10.25309013 29.43955382 -12.6796875 22.55078125 C-14.82217192 20.72494832 -14.82217192 20.72494832 -17.1171875 19.296875 C-19 18 -19 18 -20 15 C-18.60432165 14.68680856 -17.20844918 14.37448212 -15.8125 14.0625 C-15.03519531 13.88847656 -14.25789062 13.71445312 -13.45703125 13.53515625 C-11 13 -11 13 -8.40625 12.8125 C-5.71805195 12.17900031 -5.71805195 12.17900031 -4.19921875 9.27734375 C-3.70035156 8.17519531 -3.20148437 7.07304687 -2.6875 5.9375 C-1.91986328 4.28041016 -1.91986328 4.28041016 -1.13671875 2.58984375 C-0.76160156 1.73519531 -0.38648437 0.88054688 0 0 Z " fill="#FFCA27" transform="translate(23,4)"/>
</svg>
