<svg width="31" height="28" viewBox="0 0 31 28" fill="none" xmlns="http://www.w3.org/2000/svg">
<g id="teenyicons:tick-circle-solid" clip-path="url(#clip0_472_703)">
<path id="Vector" fill-rule="evenodd" clip-rule="evenodd" d="M0 13.595C0 9.98938 1.58147 6.53144 4.3965 3.98188C7.21153 1.43233 11.0295 0 15.0106 0C18.9916 0 22.8096 1.43233 25.6247 3.98188C28.4397 6.53144 30.0212 9.98938 30.0212 13.595C30.0212 17.2006 28.4397 20.6585 25.6247 23.2081C22.8096 25.7577 18.9916 27.19 15.0106 27.19C11.0295 27.19 7.21153 25.7577 4.3965 23.2081C1.58147 20.6585 0 17.2006 0 13.595H0ZM14.154 19.4136L22.7961 9.62888L21.235 8.49778L13.8658 16.8378L8.6461 12.8989L7.36519 14.2911L14.154 19.4155V19.4136Z" fill="black"/>
</g>
<defs>
<clipPath id="clip0_472_703">
<rect width="30.0212" height="27.19" fill="white"/>
</clipPath>
</defs>
</svg>
